# xmcd
#
# Track frame offsets:
#	150
#	13332
#	33074
#	48894
#	65761
#	77979
#	94671
#	107471
#	126117
#	141487
#	156084
#	167149
#
# Disc length: 2438 seconds
#
# Revision: 1
# Processed by: cddbd v1.5.2PL0 Copyright (c) Steve Scherf et al.
# Submitted via: audiograbber 1.83.01
#
DISCID=9c09840c
DTITLE=Sally Jones - Songs about us
DYEAR=2007
DGENRE=Country
TTITLE0=Go lightly
TTITLE1=Angels by my side
TTITLE2=A sound i hear
TTITLE3=The morning
TTITLE4=Thanks again (with Chris Jones)
TTITLE5=Farmer
TTITLE6=Song about us
TTITLE7=Bluebird in the rain
TTITLE8=I can't say (with Tim O'Brien)
TTITLE9=Until today
TTITLE10=Someday i might
TTITLE11=Save me a waltz
EXTD=
EXTT0=
EXTT1=
EXTT2=
EXTT3=
EXTT4=
EXTT5=
EXTT6=
EXTT7=
EXTT8=
EXTT9=
EXTT10=
EXTT11=
PLAYORDER=
